<svg xmlns="http://www.w3.org/2000/svg" viewBox="0 0 2400 1600" width="2400" height="1600" preserveAspectRatio="xMidYMid slice">
  <defs>
    <linearGradient id="sky" x1="0" y1="0" x2="0" y2="1">
      <stop offset="0%" stop-color="#0E2A33"/>
      <stop offset="55%" stop-color="#153743"/>
      <stop offset="100%" stop-color="#25566A"/>
    </linearGradient>
    <linearGradient id="water" x1="0" y1="0" x2="0" y2="1">
      <stop offset="0%" stop-color="#25566A"/>
      <stop offset="50%" stop-color="#1B4353"/>
      <stop offset="100%" stop-color="#0E2A33"/>
    </linearGradient>
    <radialGradient id="sun" cx="80%" cy="30%" r="30%">
      <stop offset="0%" stop-color="#D8AF4A" stop-opacity="0.85"/>
      <stop offset="55%" stop-color="#B4863A" stop-opacity="0.4"/>
      <stop offset="100%" stop-color="#B4863A" stop-opacity="0"/>
    </radialGradient>
    <radialGradient id="glow2" cx="15%" cy="65%" r="45%">
      <stop offset="0%" stop-color="#2A8FB5" stop-opacity="0.35"/>
      <stop offset="100%" stop-color="#2A8FB5" stop-opacity="0"/>
    </radialGradient>
    <filter id="grain">
      <feTurbulence type="fractalNoise" baseFrequency="0.9" numOctaves="1" seed="7"/>
      <feColorMatrix values="0 0 0 0 1  0 0 0 0 1  0 0 0 0 1  0 0 0 0.06 0"/>
    </filter>
  </defs>

  <rect width="2400" height="1600" fill="url(#sky)"/>
  <rect width="2400" height="1600" fill="url(#sun)"/>
  <rect width="2400" height="1600" fill="url(#glow2)"/>

  <!-- Distant hills -->
  <path d="M0 1000 C 300 940, 550 970, 800 950 C 1050 930, 1300 970, 1550 950 C 1800 930, 2050 970, 2400 940 L 2400 1100 L 0 1100 Z" fill="#0E2A33" opacity="0.7"/>
  <path d="M0 1080 C 300 1030, 600 1060, 900 1040 C 1200 1020, 1500 1060, 1800 1040 C 2100 1020, 2300 1060, 2400 1050 L 2400 1200 L 0 1200 Z" fill="#0E2A33" opacity="0.85"/>

  <!-- Water body -->
  <rect y="1100" width="2400" height="500" fill="url(#water)"/>

  <!-- Pond edges -->
  <g opacity="0.35" stroke="#B4863A" stroke-width="2" fill="none">
    <path d="M200 1250 C 500 1240, 900 1260, 1200 1250 C 1500 1240, 1900 1260, 2200 1250"/>
    <path d="M150 1320 C 500 1310, 900 1330, 1200 1320 C 1500 1310, 1900 1330, 2250 1320"/>
    <path d="M100 1400 C 500 1390, 900 1410, 1200 1400 C 1500 1390, 1900 1410, 2300 1400"/>
  </g>

  <!-- Sun reflections -->
  <g opacity="0.55" fill="#D8AF4A">
    <ellipse cx="1900" cy="1200" rx="240" ry="4"/>
    <ellipse cx="1900" cy="1235" rx="180" ry="3"/>
    <ellipse cx="1900" cy="1265" rx="130" ry="2.5"/>
    <ellipse cx="1900" cy="1295" rx="90" ry="2"/>
  </g>

  <!-- Fish silhouettes -->
  <g fill="#0E2A33" opacity="0.6">
    <path d="M300 1420 c 40 -20, 90 -20, 130 -5 l 25 -8 l -8 15 l 8 15 l -25 -8 c -40 15, -90 15, -130 -5 c -10 -6, -10 -14, 0 -20 z"/>
    <path d="M1100 1500 c 30 -14, 65 -14, 95 -3 l 18 -6 l -6 12 l 6 12 l -18 -6 c -30 11, -65 11, -95 -3 c -8 -4, -8 -12, 0 -16 z" opacity="0.7"/>
  </g>

  <rect width="2400" height="1600" filter="url(#grain)" opacity="0.6"/>
</svg>
