<svg xmlns="http://www.w3.org/2000/svg" viewBox="0 0 1200 900" width="1200" height="900" preserveAspectRatio="xMidYMid slice">
  <defs>
    <linearGradient id="bs-bg" x1="0" y1="0" x2="0" y2="1">
      <stop offset="0%" stop-color="#25566A"/>
      <stop offset="100%" stop-color="#0E2A33"/>
    </linearGradient>
    <radialGradient id="bs-light" cx="50%" cy="20%" r="45%">
      <stop offset="0%" stop-color="#F1E1B0" stop-opacity="0.35"/>
      <stop offset="100%" stop-color="#F1E1B0" stop-opacity="0"/>
    </radialGradient>
  </defs>
  <rect width="1200" height="900" fill="url(#bs-bg)"/>
  <rect width="1200" height="900" fill="url(#bs-light)"/>
  <!-- School of fish -->
  <g fill="#D8AF4A" opacity="0.85">
    <g transform="translate(600 450)">
      <path d="M-90 0 c 40 -20, 90 -20, 130 -5 l 25 -8 l -8 15 l 8 15 l -25 -8 c -40 15, -90 15, -130 -5 c -10 -6, -10 -14, 0 -20 z" transform="scale(1.4)"/>
    </g>
  </g>
  <g fill="#F1E1B0" opacity="0.7">
    <path d="M300 300 c 30 -14, 65 -14, 90 -3 l 15 -5 l -5 10 l 5 10 l -15 -5 c -25 11, -60 11, -90 -3 c -8 -4, -8 -12, 0 -14 z"/>
    <path d="M820 260 c 25 -12, 55 -12, 75 -2 l 12 -4 l -4 8 l 4 8 l -12 -4 c -20 10, -50 10, -75 -2 c -6 -3, -6 -9, 0 -12 z"/>
    <path d="M250 700 c 30 -14, 65 -14, 90 -3 l 15 -5 l -5 10 l 5 10 l -15 -5 c -25 11, -60 11, -90 -3 c -8 -4, -8 -12, 0 -14 z"/>
    <path d="M880 720 c 25 -12, 55 -12, 75 -2 l 12 -4 l -4 8 l 4 8 l -12 -4 c -20 10, -50 10, -75 -2 c -6 -3, -6 -9, 0 -12 z"/>
    <path d="M180 500 c 22 -10, 48 -10, 66 -2 l 11 -3 l -3 7 l 3 7 l -11 -3 c -18 8, -44 8, -66 -2 c -5 -3, -5 -8, 0 -10 z"/>
    <path d="M950 520 c 22 -10, 48 -10, 66 -2 l 11 -3 l -3 7 l 3 7 l -11 -3 c -18 8, -44 8, -66 -2 c -5 -3, -5 -8, 0 -10 z"/>
  </g>
  <!-- Water bubbles -->
  <g fill="#7ABDDA" opacity="0.5">
    <circle cx="200" cy="150" r="6"/><circle cx="360" cy="120" r="4"/><circle cx="480" cy="180" r="5"/>
    <circle cx="700" cy="130" r="5"/><circle cx="850" cy="170" r="7"/><circle cx="1000" cy="140" r="4"/>
  </g>
</svg>
