<svg xmlns="http://www.w3.org/2000/svg" viewBox="0 0 1600 900" width="1600" height="900" preserveAspectRatio="xMidYMid slice">
  <defs>
    <linearGradient id="wq-bg" x1="0" y1="0" x2="1" y2="1">
      <stop offset="0%" stop-color="#25566A"/>
      <stop offset="100%" stop-color="#0E2A33"/>
    </linearGradient>
  </defs>
  <rect width="1600" height="900" fill="url(#wq-bg)"/>
  <!-- Test tubes -->
  <g transform="translate(300 250)" stroke="#D8AF4A" stroke-width="4">
    <rect x="0" y="0" width="80" height="400" rx="40" fill="#153743"/>
    <rect x="0" y="220" width="80" height="180" rx="40" fill="#2A8FB5" opacity="0.85"/>
  </g>
  <g transform="translate(500 200)" stroke="#D8AF4A" stroke-width="4">
    <rect x="0" y="0" width="80" height="450" rx="40" fill="#153743"/>
    <rect x="0" y="180" width="80" height="270" rx="40" fill="#5C9C57" opacity="0.85"/>
  </g>
  <g transform="translate(700 280)" stroke="#D8AF4A" stroke-width="4">
    <rect x="0" y="0" width="80" height="370" rx="40" fill="#153743"/>
    <rect x="0" y="260" width="80" height="110" rx="40" fill="#C6613D" opacity="0.85"/>
  </g>
  <g transform="translate(900 240)" stroke="#D8AF4A" stroke-width="4">
    <rect x="0" y="0" width="80" height="410" rx="40" fill="#153743"/>
    <rect x="0" y="200" width="80" height="210" rx="40" fill="#D8AF4A" opacity="0.85"/>
  </g>
  <!-- Droplet -->
  <g transform="translate(1220 350)" fill="#F1E1B0" opacity="0.85">
    <path d="M0 -140 C 80 -60, 100 40, 0 100 C -100 40, -80 -60, 0 -140 Z"/>
  </g>
</svg>
